<mxfile host="app.diagrams.net" modified="2024-06-10T04:22:02.068Z" agent="Mozilla/5.0 (Windows NT 10.0; Win64; x64) AppleWebKit/537.36 (KHTML, like Gecko) Chrome/119.0.0.0 Safari/537.36 Edg/119.0.0.0" version="24.4.14" etag="c53FbuaGobzdnRti4RkU" type="github">
  <diagram name="第 1 页" id="GC7xoftH2BrxEwRyyQtE">
    <mxGraphModel>
      <root>
        <mxCell id="0" />
        <mxCell id="1" parent="0" />
      </root>
    </mxGraphModel>
  </diagram>
</mxfile>
